<?xml version="1.0" standalone="no"?>
<!DOCTYPE svg PUBLIC "-//W3C//DTD SVG 20010904//EN"
 "http://www.w3.org/TR/2001/REC-SVG-20010904/DTD/svg10.dtd">
<svg version="1.0" xmlns="http://www.w3.org/2000/svg"
 width="500.000000pt" height="500.000000pt" viewBox="0 0 500.000000 500.000000"
 preserveAspectRatio="xMidYMid meet">

<g transform="translate(0.000000,500.000000) scale(0.100000,-0.100000)"
fill="#000000" stroke="none">
<path d="M2360 3683 c-27 -10 -61 -47 -82 -88 -25 -49 -67 -95 -87 -95 -12 -1
-11 -3 4 -12 11 -6 41 -31 67 -55 54 -49 68 -53 68 -18 0 14 -4 25 -10 25 -18
0 -10 18 10 23 11 3 20 12 20 21 0 12 -6 15 -25 10 -15 -4 -25 -2 -25 5 0 6 4
11 9 11 5 0 7 8 4 19 -7 29 15 97 43 131 14 16 24 30 22 29 -1 0 -10 -3 -18
-6z m-65 -164 c0 -7 -8 -15 -17 -17 -18 -3 -25 18 -11 32 10 10 28 1 28 -15z"/>
<path d="M2577 3560 c-51 -32 -61 -62 -28 -80 27 -14 28 -13 35 13 3 13 17 40
30 60 31 45 24 46 -37 7z"/>
<path d="M2746 3572 c-3 -5 -7 -45 -8 -89 -2 -67 1 -86 25 -135 15 -32 33 -58
40 -58 8 0 32 14 54 31 l41 32 -24 35 c-26 38 -30 72 -13 121 9 27 9 36 -4 48
-18 18 -102 30 -111 15z"/>
<path d="M1983 3493 c-14 -5 -18 -43 -5 -43 4 0 14 6 21 13 10 10 11 8 5 -8
-5 -14 -4 -17 4 -10 6 6 9 20 6 33 -6 23 -10 24 -31 15z"/>
<path d="M2105 3470 c-20 -9 -17 -11 23 -13 16 -2 29 -15 47 -52 14 -27 23
-40 21 -27 -5 26 10 30 17 5 3 -10 5 -4 6 13 2 51 -65 94 -114 74z"/>
<path d="M2029 3449 c-9 -17 -8 -20 2 -14 9 6 11 3 6 -8 -7 -18 38 -50 86 -62
40 -10 35 11 -14 57 -35 33 -43 37 -57 26 -13 -11 -15 -10 -9 5 9 24 0 21 -14
-4z"/>
<path d="M2531 3437 c-26 -26 -9 -87 24 -87 31 0 36 9 28 53 -6 37 -32 54 -52
34z"/>
<path d="M2030 3368 c0 -38 50 -88 88 -88 33 0 56 19 25 21 -12 1 -10 3 7 9
24 7 23 7 -10 13 -19 4 -46 8 -60 9 -16 2 -26 10 -28 23 -6 32 -22 42 -22 13z"/>
<path d="M2270 3328 c0 -28 23 -53 40 -43 13 8 13 55 0 55 -5 0 -10 -6 -10
-12 0 -8 -7 -5 -15 6 -14 19 -15 19 -15 -6z"/>
<path d="M2473 3299 c-19 -19 -16 -49 5 -49 18 0 42 18 42 32 0 4 -6 5 -14 2
-8 -3 -16 2 -18 11 -2 13 -5 14 -15 4z"/>
<path d="M2582 3293 c-29 -6 -45 -38 -38 -77 5 -25 14 -35 42 -45 19 -7 39
-23 44 -35 4 -12 16 -28 26 -36 16 -14 17 -13 12 11 -5 26 -3 26 47 25 38 0
66 7 103 26 40 21 60 25 89 21 l38 -6 -22 25 c-13 13 -23 35 -23 49 l0 24 -19
-25 c-17 -21 -27 -24 -74 -24 -29 1 -62 6 -73 12 -10 6 -14 12 -8 12 16 0 26
40 10 40 -6 0 -22 -7 -34 -16 -21 -14 -25 -14 -58 5 -19 12 -36 20 -37 20 -1
-1 -12 -4 -25 -6z"/>
<path d="M2400 3280 c0 -5 5 -10 10 -10 6 0 10 5 10 10 0 6 -4 10 -10 10 -5 0
-10 -4 -10 -10z"/>
<path d="M2314 3261 c3 -4 -4 -15 -15 -24 -11 -10 -17 -22 -14 -28 4 -5 -4
-19 -17 -30 -20 -18 -20 -19 -2 -8 18 10 26 9 49 -9 33 -26 96 -29 119 -6 17
16 20 98 4 88 -5 -3 -14 -1 -21 4 -14 12 -109 24 -103 13z"/>
<path d="M2863 2099 c-47 -18 -56 -84 -14 -105 27 -14 32 -11 67 41 20 28 20
31 5 46 -25 24 -34 27 -58 18z"/>
<path d="M2185 2061 c0 -35 2 -38 18 -30 21 12 70 -2 107 -31 25 -19 25 -19 5
-34 -19 -15 -19 -15 11 -16 30 0 64 -25 64 -48 0 -16 65 -15 77 1 13 16 25 80
14 73 -13 -8 -41 39 -41 69 0 14 -4 25 -10 25 -5 0 -10 -6 -10 -14 0 -12 -9
-11 -46 6 -34 14 -60 19 -94 16 -30 -3 -54 0 -66 9 -27 19 -29 17 -29 -26z"/>
<path d="M2972 2089 c-31 -12 -25 -41 10 -53 33 -12 46 -3 28 19 -11 13 -9 15
11 15 23 1 23 1 5 15 -22 17 -23 17 -54 4z"/>
<path d="M2666 2054 c20 -25 29 -51 32 -90 4 -52 22 -88 22 -44 0 23 30 25 37
3 6 -17 -42 -35 -73 -27 -18 5 -24 2 -24 -10 0 -10 9 -16 25 -16 28 0 34 -15
9 -24 -11 -4 -13 -13 -8 -28 3 -13 8 -25 10 -27 2 -2 28 19 58 47 30 29 63 52
73 52 11 0 5 7 -17 18 -22 13 -45 39 -67 78 -31 57 -74 104 -94 104 -6 0 2
-16 17 -36z"/>
<path d="M2150 1967 c-16 -9 -24 -20 -22 -33 12 -63 4 -105 -25 -142 l-30 -37
38 -37 c44 -44 63 -47 81 -14 7 13 23 42 36 65 27 50 41 189 20 203 -20 12
-70 9 -98 -5z"/>
<path d="M2874 1955 c-9 -24 5 -37 22 -20 15 15 11 35 -7 35 -5 0 -12 -7 -15
-15z"/>
<path d="M2897 1880 c-15 -12 -27 -31 -26 -43 0 -12 3 -16 6 -9 2 6 9 12 14
12 6 0 5 -9 -1 -22 -7 -14 5 -6 30 20 42 43 58 50 77 31 6 -6 17 -8 23 -4 17
11 -15 27 -60 32 -26 3 -44 -3 -63 -17z"/>
<path d="M3110 1867 c0 -19 27 -53 35 -45 12 12 -4 58 -20 58 -8 0 -15 -6 -15
-13z"/>
<path d="M3071 1850 c0 -8 4 -22 9 -30 12 -18 12 -2 0 25 -6 13 -9 15 -9 5z"/>
<path d="M3097 1839 c4 -13 8 -18 11 -10 2 7 -1 18 -6 23 -8 8 -9 4 -5 -13z"/>
<path d="M2978 1829 c-70 -36 -43 -60 45 -40 47 11 48 12 40 39 -7 28 -35 28
-85 1z"/>
<path d="M2400 1783 c0 -10 -3 -28 -6 -40 -4 -15 0 -25 16 -33 30 -16 51 5 53
51 2 31 0 34 -30 37 -26 3 -33 0 -33 -15z"/>
<path d="M3031 1754 c-9 -20 -17 -25 -34 -21 -12 3 -40 8 -62 12 -40 6 -40 6
-15 -10 24 -16 24 -16 3 -12 -28 6 -30 -9 -4 -23 38 -20 101 -10 101 17 0 8 5
11 10 8 8 -5 30 32 30 51 0 14 -19 0 -29 -22z"/>
</g>
</svg>
